:SAMPLES-PER-SECOND 30
:FULLY-SPECIFIED
:DEGREES
37
root  2.30949 40.3715 0.107859 -170.08 -81.5973 164.675
RightUpLeg  -7.74982 -14.3249 -5.96204
RightLeg  28.2357 -1.45193 -1.07255
RightFoot  -5.91031 -0.303064 5.55461
RightToes  0.00048216 0.542163 -0.142577
Spine  5.53714 0.292032 -2.94735
Spine1  9.86898 0.197551 -0.807169
HEad  15.1817 -7.04301 -3.16204
LeftShoulder1  4.49453 -7.36097 -35.2688
LeftArm  -22.148 10.135 -23.3431
LeftForeArm  3.13255 -3.71963 -1.1335
LeftHand  -0.25398 0.0180481 5.50724
RightShoulder  3.47005 6.4002 29.0552
RightArm  -12.455 -15.8204 31.6886
RightForeArm  11.6774 16.5315 4.46981
RightHand  -1.78972 6.10292 -18.3277
LeftUpLeg  5.59102 7.75148 2.31092
LeftLeg  9.10854 18.0031 -3.52798
LeftFoot  -10.5868 0.0797531 -2.4864
LeftToes  1.06245e-005 4.65855e-005 -8.18504e-006
38
root  2.18546 40.2981 -0.0241954 -170.041 -80.6306 164.486
RightUpLeg  -10.4511 -14.0465 -6.43905
RightLeg  31.1728 -1.95131 -1.50864
RightFoot  -5.43129 -0.316207 5.40529
RightToes  0.00048216 0.542163 -0.142577
Spine  6.50562 -0.160618 -4.10873
Spine1  10.2335 -0.543239 -0.265753
HEad  14.6512 -5.23983 -3.49618
LeftShoulder1  4.90723 -7.82126 -37.1776
LeftArm  -21.1311 8.3797 -26.5608
LeftForeArm  5.88615 -2.83241 -1.56058
LeftHand  -0.25398 0.0180481 5.50724
RightShoulder  3.71362 6.78913 30.1154
RightArm  -12.1018 -16.8064 37.0751
RightForeArm  13.3853 15.2938 4.68588
RightHand  -1.62894 5.58316 -17.4887
LeftUpLeg  5.91132 7.94714 2.36697
LeftLeg  9.613 18.429 -3.46068
LeftFoot  -11.2711 0.0696613 -3.23591
LeftToes  1.06245e-005 4.65855e-005 -8.18504e-006
39
root  1.99598 40.2683 -0.176742 -171.155 -79.7642 165.63
RightUpLeg  -12.502 -14.4042 -6.76025
RightLeg  31.1636 -2.35898 -1.77464
RightFoot  -5.4667 -0.281474 4.75565
RightToes  0.00048216 0.542163 -0.142577
Spine  7.42321 -0.642865 -4.76402
Spine1  10.2886 -1.28457 0.295934
HEad  14.2273 -3.5026 -4.09021
LeftShoulder1  5.27993 -8.17649 -38.9762
LeftArm  -20.3645 6.64771 -29.7154
LeftForeArm  9.6392 -3.30035 -2.00978
LeftHand  -0.25398 0.0180481 5.50724
RightShoulder  3.99727 7.2221 31.3183
RightArm  -11.3564 -18.4337 41.6278
RightForeArm  14.6427 14.3131 5.00274
RightHand  -1.30261 3.93132 -16.4511
LeftUpLeg  6.28818 8.00867 2.55623
LeftLeg  9.76503 18.9719 -3.28612
LeftFoot  -11.7245 0.0576697 -3.82441
LeftToes  1.06245e-005 4.65855e-005 -8.18504e-006
40
root  1.74012 40.2405 -0.357537 -172.629 -78.8722 167.285
RightUpLeg  -14.0039 -15.3487 -6.95099
RightLeg  28.6507 -2.65792 -1.80167
RightFoot  -5.48921 -0.269259 4.53388
RightToes  0.00048216 0.542163 -0.142577
Spine  8.22263 -1.05567 -4.97947
Spine1  10.2653 -1.88371 0.694065
HEad  13.6783 -1.99332 -4.8277
LeftShoulder1  5.62566 -8.51084 -40.514
LeftArm  -18.7928 4.69658 -32.6389
LeftForeArm  14.0037 -4.67644 -2.81919
LeftHand  -0.25398 0.0180481 5.50724
RightShoulder  4.28674 7.60508 32.6466
RightArm  -8.58547 -20.3355 44.8736
RightForeArm  17.009 13.9993 5.4443
RightHand  -0.906699 2.04286 -14.2732
LeftUpLeg  6.53957 7.99568 2.75927
LeftLeg  10.059 19.829 -2.83316
LeftFoot  -12.1761 0.0427793 -4.14346
LeftToes  1.06245e-005 4.65855e-005 -8.18504e-006
41
root  1.41189 40.1893 -0.577163 -174.122 -77.8044 168.948
RightUpLeg  -15.0777 -16.694 -7.009
RightLeg  24.6508 -2.8139 -1.629
RightFoot  -5.02811 -0.291401 4.65852
RightToes  0.00048216 0.542163 -0.142577
Spine  8.93365 -1.31433 -5.05951
Spine1  10.3907 -2.32351 1.12095
HEad  12.863 -0.730192 -5.61133
LeftShoulder1  5.91182 -8.84428 -41.5054
LeftArm  -15.7126 2.40508 -35.4179
LeftForeArm  19.8196 -6.57024 -4.12417
LeftHand  -0.25398 0.0180481 5.50724
RightShoulder  4.52868 7.93528 33.645
RightArm  -2.90816 -22.226 46.8316
RightForeArm  19.4607 14.796 5.93079
RightHand  -0.531148 1.70271 -8.95508
LeftUpLeg  6.90899 8.07065 3.05974
LeftLeg  10.4989 20.5809 -2.36591
LeftFoot  -12.7736 0.016284 -4.78417
LeftToes  1.06245e-005 4.65855e-005 -8.18504e-006
42
root  1.01105 40.1208 -0.83413 -175.176 -76.49 170.123
RightUpLeg  -15.9292 -18.6479 -6.90078
RightLeg  20.0997 -2.73027 -1.35273
RightFoot  -4.0219 -0.333997 4.78839
RightToes  0.00048216 0.542163 -0.142577
Spine  9.57831 -1.4174 -5.17136
Spine1  10.622 -2.6302 1.68041
HEad  11.9735 0.3975 -6.35581
LeftShoulder1  6.13061 -9.18227 -41.9277
LeftArm  -10.6376 0.00415295 -37.9876
LeftForeArm  26.7916 -9.21524 -5.68183
LeftHand  -0.25398 0.0180481 5.50724
RightShoulder  4.70646 8.27318 34.0161
RightArm  4.75069 -24.1203 47.8301
RightForeArm  18.6906 16.6905 6.04506
RightHand  -0.0491545 2.84957 -0.940655
LeftUpLeg  7.58567 8.22888 3.38949
LeftLeg  10.7837 21.2374 -2.10536
LeftFoot  -13.4016 -0.0242951 -5.81423
LeftToes  1.06245e-005 4.65855e-005 -8.18504e-006
43
root  0.541483 40.0343 -1.12713 -175.314 -75.0552 170.458
RightUpLeg  -16.8046 -20.9516 -6.80203
RightLeg  15.7786 -2.91029 -0.875412
RightFoot  -2.66948 -0.386928 4.85968
RightToes  0.00048216 0.542163 -0.142577
Spine  10.1156 -1.48201 -5.21452
Spine1  10.7351 -2.82553 2.05356
HEad  11.2551 1.47137 -6.94539
LeftShoulder1  6.29593 -9.51076 -41.9781
LeftArm  -2.01202 -2.07215 -40.207
LeftForeArm  30.9547 -13.3352 -6.33202
LeftHand  -0.25398 0.0180481 5.50724
RightShoulder  4.81352 8.56196 33.9469
RightArm  11.3607 -25.9134 48.2265
RightForeArm  14.8828 18.6602 5.70067
RightHand  0.428604 3.08864 5.60258
LeftUpLeg  8.32251 8.33664 3.50475
LeftLeg  10.9866 22.3629 -1.83863
LeftFoot  -13.9116 -0.057524 -6.29
LeftToes  1.06245e-005 4.65855e-005 -8.18504e-006
44
root  0.00174036 39.9182 -1.46903 -174.864 -73.6797 170.285
RightUpLeg  -17.5356 -21.1685 -7.47329
RightLeg  12.4148 -5.36037 0.0886432
RightFoot  -1.3342 -0.422856 4.72468
RightToes  0.00048216 0.542163 -0.142577
Spine  10.5936 -1.61765 -5.07315
Spine1  10.6562 -2.96372 2.023
HEad  10.7035 2.48307 -7.30142
LeftShoulder1  6.4181 -9.7847 -41.9081
LeftArm  8.61987 -3.47568 -41.8657
LeftForeArm  30.2531 -18.8692 -4.91176
LeftHand  -0.25398 0.0180481 5.50724
RightShoulder  4.84847 8.69385 33.803
RightArm  14.6038 -27.1711 48.1436
RightForeArm  12.858 19.6581 5.39563
RightHand  0.430922 1.52817 6.96042
LeftUpLeg  9.03159 8.38426 3.46123
LeftLeg  11.2621 23.7374 -1.47255
LeftFoot  -14.3487 -0.0762869 -6.17457
LeftToes  1.06245e-005 4.65855e-005 -8.18504e-006
